<?xml version="1.0" encoding="UTF-8"?>
<svg width="226px" height="226px" viewBox="0 0 226 226" version="1.1" xmlns="http://www.w3.org/2000/svg" xmlns:xlink="http://www.w3.org/1999/xlink">
    <!-- Generator: Sketch 49.1 (51147) - http://www.bohemiancoding.com/sketch -->
    <title>ic_404@2x</title>
    <desc>Created with Sketch.</desc>
    <defs></defs>
    <g id="页面" stroke="none" stroke-width="1" fill="none" fill-rule="evenodd">
        <g id="网络错误" transform="translate(-713.000000, -348.000000)">
            <g id="ic_404" transform="translate(713.000000, 348.000000)">
                <circle id="Oval-16-Copy" fill="#F0F2F7" cx="113" cy="113" r="113"></circle>
                <g id="路由器" transform="translate(105.000000, 74.000000)"></g>
                <path d="M47,114 L179,114 C181.209139,114 183,115.790861 183,118 L183,166 C183,168.209139 181.209139,170 179,170 L47,170 C44.790861,170 43,168.209139 43,166 L43,118 C43,115.790861 44.790861,114 47,114 Z" id="Rectangle-42" fill="#FFFFFF"></path>
                <rect id="Rectangle-4" fill="#FFFFFF" x="127" y="93" width="9" height="32" rx="4.5"></rect>
                <circle id="Oval-18-Copy-7" fill="#F0F2F7" cx="67" cy="160" r="4"></circle>
                <circle id="Oval-18-Copy-8" fill="#F0F2F7" cx="133" cy="160" r="4"></circle>
                <circle id="Oval-18-Copy-9" fill="#F0F2F7" cx="81" cy="160" r="4"></circle>
                <circle id="Oval-18-Copy-10" fill="#F0F2F7" cx="146" cy="160" r="4"></circle>
                <circle id="Oval-18-Copy-11" fill="#F0F2F7" cx="94" cy="160" r="4"></circle>
                <circle id="Oval-18-Copy-12" fill="#F0F2F7" cx="159" cy="160" r="4"></circle>
                <path d="M165.293262,69.219248 L164.827022,68.7530081 C155.735701,59.8951626 143.847368,55.2329065 131.493221,55 L127.996351,55 C115.874969,55.2329065 103.986636,59.8951626 94.6625506,68.7530081 L94.1961685,69.219248 C92.5644002,71.3172561 92.5644002,74.1144106 94.429075,76.212561 C96.2941766,78.0776626 99.3242376,78.3105691 101.422246,76.4458943 L101.655152,76.212561 L101.888628,75.9796545 C109.348038,68.7530081 118.90503,65.2567073 128.928831,65.0238008 C139.185538,64.7903252 149.442246,68.5201016 157.367469,75.9796545 C157.367469,75.9796545 157.367469,76.212561 157.600945,76.212561 L157.833709,76.4458943 C159.93186,78.0776626 162.729014,78.0776626 164.827022,76.212561 C166.692124,74.1144106 166.92503,71.0844919 165.293262,69.219248 Z" id="Path" fill="#E1E5EC"></path>
                <path d="M153.728404,82.5574187 C147.667713,76.4968699 139.741921,73.4662398 131.816697,73 L129.485213,73 C121.326514,73.2333333 113.634197,76.2633943 107.573506,82.3240854 C105.475498,84.4220935 105.475498,87.4527236 107.573506,89.5507317 C109.671514,91.6487398 112.701575,91.6487398 114.799583,89.5507317 L115.265965,89.0843496 C119.461982,85.1218089 125.056291,82.7903252 131.116982,82.7903252 C136.944766,83.0238008 142.306169,85.1218089 146.502185,89.0843496 L146.968567,89.5507317 C149.066006,91.6487398 152.096636,91.6487398 154.194644,89.5507317 C155.826413,87.6854878 155.826413,84.4220935 153.728404,82.5574187 Z" id="Fill-2" fill="#E1E5EC"></path>
                <rect id="Rectangle-37" fill="#FFFFFF" x="55" y="166" width="19" height="16" rx="2"></rect>
                <rect id="Rectangle-37-Copy" fill="#FFFFFF" x="152" y="166" width="19" height="16" rx="2"></rect>
            </g>
        </g>
    </g>
</svg>