<?xml version="1.0" encoding="UTF-8"?>
<svg width="129px" height="32px" viewBox="0 0 129 32" version="1.1" xmlns="http://www.w3.org/2000/svg" xmlns:xlink="http://www.w3.org/1999/xlink">
    <!-- Generator: Sketch 49.1 (51147) - http://www.bohemiancoding.com/sketch -->
    <title>logo@2x</title>
    <desc>Created with Sketch.</desc>
    <defs>
        <polygon id="path-1" points="0.00211862069 0.0793350649 25.5032497 0.0793350649 25.5032497 14.4374525 0.00211862069 14.4374525"></polygon>
        <polygon id="path-3" points="0.594377143 0.164107168 24.5859922 0.164107168 24.5859922 12.8 0.594377143 12.8"></polygon>
        <polygon id="path-5" points="0 0.202045269 10.9037339 0.202045269 10.9037339 8.8974961 0 8.8974961"></polygon>
        <polygon id="path-7" points="0 31.0857143 128.914286 31.0857143 128.914286 0 0 0"></polygon>
    </defs>
    <g id="Page-1" stroke="none" stroke-width="1" fill="none" fill-rule="evenodd">
        <g id="menu" transform="translate(-568.000000, -258.000000)">
            <g id="Group-2" transform="translate(568.000000, 253.000000)">
                <g id="logo" transform="translate(0.000000, 5.000000)">
                    <g id="Group-3" transform="translate(0.914286, 0.000000)">
                        <mask id="mask-2" fill="white">
                            <use xlink:href="#path-1"></use>
                        </mask>
                        <g id="Clip-2"></g>
                        <path d="M2.66628414,6.64254338 C6.67400828,6.21336935 10.3083255,8.84098494 11.6006841,12.7723719 C11.8769876,12.6968603 12.1577048,12.6356862 12.4498979,12.6041434 C14.2480772,12.4120187 15.9314979,13.1422836 17.1055669,14.4374525 C18.0033324,12.7838421 19.5870014,11.5976395 21.4849324,11.3950005 C22.9794428,11.2344187 24.3927393,11.71712 25.5032497,12.6261278 L25.5032497,9.52250182 C25.5032497,8.51217455 25.0053738,7.57831481 24.1976497,7.07267325 L13.6160221,0.458231688 C12.8082979,-0.0474098701 11.8125462,-0.0474098701 11.0039393,0.458231688 L0.423194483,7.07267325 C0.270477241,7.16921351 0.131884138,7.28391481 0.00211862069,7.40817455 C0.825732414,7.00958753 1.71908414,6.74290701 2.66628414,6.64254338" id="Fill-1" fill="#3DA9C4" mask="url(#mask-2)"></path>
                    </g>
                    <g id="Group-6" transform="translate(1.828571, 19.200000)">
                        <mask id="mask-4" fill="white">
                            <use xlink:href="#path-3"></use>
                        </mask>
                        <g id="Clip-5"></g>
                        <path d="M10.2400914,12.5403429 C10.3662629,12.6134857 10.6826057,12.7881143 10.9212343,12.8 C11.12512,12.8091429 11.3902629,12.6564571 11.5164343,12.5842286 L23.6215771,5.59268571 C23.7440914,5.50948571 24.23232,5.17942857 24.40512,4.84205714 C24.5788343,4.50194286 24.5898057,3.84548571 24.5852343,3.69828571 L24.5852343,0.202971429 L24.5852343,0.202057143 C15.8245486,-0.200228571 5.06523429,2.63222857 0.594377143,6.96594286 L10.2400914,12.5403429 Z" id="Fill-4" fill="#0C4C3B" mask="url(#mask-4)"></path>
                    </g>
                    <g id="Group-9" transform="translate(0.000000, 17.371429)">
                        <mask id="mask-6" fill="white">
                            <use xlink:href="#path-5"></use>
                        </mask>
                        <g id="Clip-8"></g>
                        <path d="M2.54584967,8.7265128 C4.4290907,6.78110278 7.40984967,5.04942189 10.9037339,3.72810093 C7.76975004,1.97552208 4.05850022,0.561110204 -0.000178168498,0.202045269 L-0.000178168498,5.53197477 C0.00694857143,6.27575213 0.00694857143,6.80295065 0.260838681,7.20856104 C0.466623297,7.59042375 0.730312674,7.83170019 0.90759033,7.96658701 C1.33608557,8.23066122 1.95254857,8.63342189 2.38015297,8.8974961 L2.54584967,8.7265128 Z" id="Fill-7" fill="#90C326" mask="url(#mask-6)"></path>
                    </g>
                    <path d="M42.9714286,24.0008795 L42.9714286,25.6474928 C42.7042518,26.211348 42.1329575,26.4996274 41.2566865,26.5142857 C40.0247525,26.4419715 39.3769992,25.6836499 39.3142857,24.2393208 C39.3769992,22.7803335 39.9998389,22.0151713 41.1810866,21.9428571 C42.0822712,21.9565382 42.6724655,22.353289 42.9525286,23.1340866 L42.3812343,23.3715507 C42.1905165,22.8086728 41.7901809,22.5272339 41.1810866,22.5272339 C40.4182154,22.6142063 40.0058525,23.184902 39.943139,24.2393208 C39.9929662,25.3230563 40.4311017,25.8996152 41.2566865,25.9729066 C41.8030672,25.9582483 42.1905165,25.7774629 42.4181751,25.4305503 L42.4181751,24.5637574 L41.1424276,24.5637574 L41.1424276,24.0008795 L42.9714286,24.0008795 Z" id="Fill-10" fill="#fff"></path>
                    <mask id="mask-8" fill="white">
                        <use xlink:href="#path-7"></use>
                    </mask>
                    <g id="Clip-13"></g>
                    <polygon id="Fill-12" fill="#fff" mask="url(#mask-8)" points="47.5428571 26.5142857 48.1709714 26.5142857 48.1709714 21.9428571 47.5428571 21.9428571"></polygon>
                    <path d="M53.0407471,25.9916837 C53.7281218,25.9756202 54.0790038,25.5483288 54.0956071,24.7098097 C54.0635074,23.9023468 53.7104116,23.4739845 53.0407471,23.4268647 C52.3367693,23.4429283 51.9770322,23.8712905 51.9604289,24.7098097 C51.9770322,25.5322652 52.3367693,25.9606275 53.0407471,25.9916837 M53.0650986,22.8571429 C54.2107229,22.9042627 54.80844,23.5221753 54.8571429,24.7098097 C54.8239364,25.8803096 54.2107229,26.4821585 53.0163957,26.5142857 C51.8707714,26.4511023 51.2653061,25.8578205 51.2,24.7333696 C51.2487029,23.5307425 51.8707714,22.9042627 53.0650986,22.8571429" id="Fill-14" fill="#fff" mask="url(#mask-8)"></path>
                    <path d="M57.9889955,24.6638543 L57.9889955,25.0464046 C58.0059592,25.6839885 58.1791061,26.0176414 58.5078512,26.0454458 C58.8623343,26.0454458 59.0395759,25.6485139 59.0395759,24.8556088 C59.0220272,24.1326942 58.8447857,23.757814 58.5078512,23.728092 C58.1878804,23.8 58.0147336,24.1116012 57.9889955,24.6638543 M58.0018645,25.9399808 L58.0018645,26.4289549 L57.6,26.4289549 L57.6,21.9428571 L58.0018645,21.9428571 L58.0018645,23.8354746 C58.1399141,23.4241611 58.3563477,23.2180249 58.6505804,23.2180249 C59.1513024,23.2611697 59.4116077,23.8067114 59.4285714,24.8556088 C59.4197971,25.9466922 59.1559821,26.4989453 58.6371264,26.5142857 C58.3428937,26.5142857 58.1317247,26.3215724 58.0018645,25.9399808" id="Fill-15" fill="#fff" mask="url(#mask-8)"></path>
                    <path d="M65.8584573,24.9575812 L65.8584573,24.5099224 C65.6625389,24.6821807 65.3028018,24.8012728 64.7781391,24.8629455 C64.1250778,24.9416314 63.8062954,25.1617392 63.8217918,25.5232689 C63.8062954,25.8688488 64.0586648,26.0347272 64.5833276,26.0187773 C65.3681079,25.9709278 65.7931512,25.6179047 65.8584573,24.9575812 M66.7428571,26.41965 L66.0300242,26.41965 C65.9326185,26.2931146 65.8673123,26.0974632 65.8352127,25.8295059 C65.5396749,26.2697215 65.016119,26.4972726 64.2645451,26.5142857 C63.5107575,26.482386 63.1178139,26.1601992 63.0857143,25.5477254 C63.0857143,24.9182383 63.535109,24.5492653 64.4361121,24.4397431 C65.2208924,24.3291575 65.6791422,24.2026221 65.8097544,24.0612002 C65.841854,23.5741984 65.5485299,23.3466473 64.9264614,23.378547 C64.3542027,23.378547 64.018817,23.5901482 63.9203044,24.014414 L63.2074715,23.8963852 C63.3890003,23.1892755 63.9601522,22.8436957 64.9264614,22.8585822 C66.0554825,22.8277458 66.5956416,23.2924178 66.5458319,24.2504716 L66.5458319,25.688084 C66.5458319,25.9709278 66.611138,26.215492 66.7428571,26.41965" id="Fill-16" fill="#fff" mask="url(#mask-8)"></path>
                    <polygon id="Fill-17" fill="#fff" mask="url(#mask-8)" points="70.4 26.5142857 71.0281143 26.5142857 71.0281143 21.9428571 70.4 21.9428571"></polygon>
                    <polygon id="Fill-18" fill="#fff" mask="url(#mask-8)" points="76.8 26.5142857 77.4281143 26.5142857 77.4281143 21.9428571 76.8 21.9428571"></polygon>
                    <path d="M84.1444392,24.9575812 L84.1444392,24.5099224 C83.9474735,24.6821807 83.5889518,24.8012728 83.0633413,24.8629455 C82.4115842,24.9416314 82.0917917,25.1617392 82.1083899,25.5232689 C82.0917917,25.8688488 82.3440847,26.0347272 82.8696953,26.0187773 C83.6542382,25.9709278 84.0791528,25.6179047 84.1444392,24.9575812 M85.0285714,26.41965 L84.3148476,26.41965 C84.2174714,26.2931146 84.1532915,26.0974632 84.1212016,25.8295059 C83.8246466,26.2697215 83.3012492,26.4972726 82.5499027,26.5142857 C81.7974498,26.482386 81.4035185,26.1601992 81.3714286,25.5477254 C81.3714286,24.9182383 81.8206873,24.5492653 82.7225243,24.4397431 C83.5070672,24.3291575 83.9651783,24.2026221 84.0946445,24.0612002 C84.1267344,23.5741984 83.833499,23.3466473 83.2127253,23.378547 C82.6406397,23.378547 82.3053555,23.5901482 82.2057662,24.014414 L81.4942555,23.8963852 C81.6746229,23.1892755 82.2467085,22.8436957 83.2127253,22.8585822 C84.3414048,22.8277458 84.8814005,23.2924178 84.8316058,24.2504716 L84.8316058,25.688084 C84.8316058,25.9709278 84.8968922,26.215492 85.0285714,26.41965" id="Fill-19" fill="#fff" mask="url(#mask-8)"></path>
                    <path d="M89.5997768,26.5142857 L89.1901973,26.5142857 L89.1901973,24.3972806 C89.1901973,23.755994 89.0352212,23.4434889 88.7264991,23.4597652 C88.4085523,23.4912327 88.2271319,23.8210992 88.1810081,24.4461095 L88.1810081,26.5142857 L87.7714286,26.5142857 L87.7714286,22.9541146 L88.1810081,22.9541146 L88.1810081,23.5791248 C88.3445939,23.1309838 88.576443,22.8900944 88.8765553,22.8575418 C89.3679277,22.8412655 89.6083866,23.3230442 89.5997768,24.3017929 L89.5997768,26.5142857 Z" id="Fill-20" fill="#fff" mask="url(#mask-8)"></path>
                    <path d="M95.6143039,24.961707 L95.6143039,24.6433276 C95.5800327,24.1034253 95.4080958,23.7994306 95.0990742,23.7284665 C94.7552006,23.7572358 94.5797785,24.1465792 94.5704847,24.8984147 C94.5797785,25.6492913 94.7552006,26.0319218 95.0990742,26.0463065 C95.433654,26.0319218 95.60501,25.6703887 95.6143039,24.961707 Z M95.6021056,21.9428571 L96,21.9428571 L96,26.428937 L95.6021056,26.428937 L95.6021056,25.9408193 C95.4894173,26.3224909 95.2750771,26.5142857 94.9573425,26.5142857 C94.4502451,26.4577063 94.1894355,25.9331475 94.1714286,24.9406095 C94.1801416,23.8071024 94.4595389,23.232677 95.0084589,23.2182924 C95.3012162,23.2470616 95.4987112,23.4522821 95.6021056,23.8349126 L95.6021056,21.9428571 Z" id="Fill-21" fill="#fff" mask="url(#mask-8)"></path>
                    <path d="M105.313747,21.9428571 L105.313747,23.1636427 L105.975551,23.1636427 L105.975551,23.6729705 L105.313747,23.6729705 L105.313747,25.5381708 C105.299242,25.8783898 105.419817,26.0404941 105.674566,26.0254844 C105.783356,26.0254844 105.876733,26.0034702 105.956513,25.9594419 L106.057143,26.3366847 C105.922969,26.4547607 105.728054,26.5137987 105.475119,26.5137987 C104.951116,26.5278077 104.697273,26.2396222 104.709965,25.6482417 L104.709965,23.6729705 L104.228571,23.6729705 L104.228571,23.1636427 L104.709965,23.1636427 L104.709965,22.1209718 L105.313747,21.9428571 Z" id="Fill-22" fill="#fff" mask="url(#mask-8)"></path>
                    <path d="M109.372019,24.6731562 L109.372019,26.5142857 L108.8,26.5142857 L108.8,22.9543318 L109.372019,22.9543318 L109.372019,23.6324702 C109.511159,23.1323295 109.759377,22.874615 110.114957,22.8571429 C110.279863,22.8571429 110.450782,22.9215715 110.628571,23.0515207 L110.419003,23.7045429 C110.318513,23.5920659 110.183668,23.5352813 110.01962,23.5352813 C109.600483,23.5680416 109.384043,23.9469692 109.372019,24.6731562" id="Fill-23" fill="#fff" mask="url(#mask-8)"></path>
                    <path d="M116.144439,24.9575812 L116.144439,24.5099224 C115.947474,24.6821807 115.588952,24.8012728 115.063341,24.8629455 C114.411584,24.9416314 114.091792,25.1617392 114.10839,25.5232689 C114.091792,25.8688488 114.344085,26.0347272 114.869695,26.0187773 C115.654238,25.9709278 116.079153,25.6179047 116.144439,24.9575812 M117.028571,26.41965 L116.314848,26.41965 C116.217471,26.2931146 116.153292,26.0974632 116.121202,25.8295059 C115.824647,26.2697215 115.301249,26.4972726 114.549903,26.5142857 C113.79745,26.482386 113.403518,26.1601992 113.371429,25.5477254 C113.371429,24.9182383 113.820687,24.5492653 114.722524,24.4397431 C115.507067,24.3291575 115.965178,24.2026221 116.094644,24.0612002 C116.126734,23.5741984 115.833499,23.3466473 115.212725,23.378547 C114.64064,23.378547 114.305356,23.5901482 114.205766,24.014414 L113.494255,23.8963852 C113.674623,23.1892755 114.246708,22.8436957 115.212725,22.8585822 C116.341405,22.8277458 116.8814,23.2924178 116.831606,24.2504716 L116.831606,25.688084 C116.831606,25.9709278 116.896892,26.215492 117.028571,26.41965" id="Fill-24" fill="#fff" mask="url(#mask-8)"></path>
                    <path d="M120.298856,24.961707 L120.298856,24.6433276 C120.264585,24.1034253 120.093229,23.7994306 119.783627,23.7284665 C119.440915,23.7572358 119.264331,24.1465792 119.256199,24.8984147 C119.264331,25.6492913 119.440915,26.0319218 119.783627,26.0463065 C120.118207,26.0319218 120.290724,25.6703887 120.298856,24.961707 Z M120.286658,21.9428571 L120.685714,21.9428571 L120.685714,26.428937 L120.286658,26.428937 L120.286658,25.9408193 C120.175132,26.3224909 119.95963,26.5142857 119.641895,26.5142857 C119.135959,26.4577063 118.873988,25.9331475 118.857143,24.9406095 C118.864694,23.8071024 119.144091,23.232677 119.694173,23.2182924 C119.985769,23.2470616 120.183264,23.4522821 120.286658,23.8349126 L120.286658,21.9428571 Z" id="Fill-25" fill="#fff" mask="url(#mask-8)"></path>
                    <path d="M126.012542,24.4383225 L128.157787,24.4383225 C128.123701,23.7615861 127.776239,23.4072572 127.109905,23.3763997 C126.427077,23.4072572 126.059823,23.7615861 126.012542,24.4383225 M128.132497,25.3576624 L128.914286,25.4768361 C128.65149,26.1674051 128.058827,26.5142857 127.134095,26.5142857 C125.931174,26.4664034 125.303324,25.8779833 125.257143,24.7447691 C125.303324,23.5328152 125.904785,22.9050251 127.060424,22.8571429 C128.263345,22.8731036 128.873602,23.5019577 128.887896,24.7447691 L128.887896,24.9331061 L126.012542,24.9331061 C126.044429,25.6098425 126.41828,25.9705557 127.134095,26.018438 C127.670681,26.0035413 128.003848,25.7832828 128.132497,25.3576624" id="Fill-26" fill="#fff" mask="url(#mask-8)"></path>
                    <polygon id="Fill-27" fill="#fff" mask="url(#mask-8)" points="40.1738359 5.60905856 42.951743 12.5119009 45.7405332 5.48571429 48.5456479 12.4675325 51.2428388 5.60905856 53.0285714 5.60905856 48.734288 16.4571429 47.5253589 16.4571429 45.2798159 10.8702685 43.0787123 16.4571429 41.8607139 16.4571429 37.4857143 5.60905856"></polygon>
                    <path d="M57.8807377,16.4079815 C58.1109699,16.4079815 58.3211819,16.3372938 58.5141037,16.1959184 C58.7079356,16.0536703 58.8735571,15.8634244 59.0127885,15.6225626 C59.1511098,15.3825735 59.2603108,15.1050589 59.3385716,14.7900186 C59.4168323,14.4741057 59.4559627,14.1433571 59.4559627,13.7960275 C59.4559627,13.291614 59.4168323,12.8159993 59.3385716,12.3683105 C59.2603108,11.9188764 59.1329096,11.5270397 58.9581879,11.191055 C58.7825563,10.8559429 58.5532341,10.5897732 58.2702214,10.3925458 C57.9862987,10.1953184 57.6395854,10.0984501 57.2291715,10.0984501 C57.0298796,10.0984501 56.8405978,10.1665197 56.658596,10.3061497 C56.4784143,10.444907 56.3182528,10.6307895 56.1799315,10.8664152 C56.0407001,11.1002954 55.9278591,11.372574 55.8450483,11.6858688 C55.7595075,11.998291 55.7176471,12.3255488 55.7176471,12.6667697 C55.7176471,13.1764193 55.7658775,13.6563974 55.8632484,14.1084496 C55.9587994,14.5587564 56.1007607,14.9558293 56.2882225,15.2979228 C56.4756843,15.6391437 56.7022764,15.9088041 56.971639,16.1095223 C57.2400916,16.3084951 57.5422144,16.4079815 57.8807377,16.4079815 M57.5913549,17.3714286 C56.9334186,17.3714286 56.3264429,17.2684514 55.7667875,17.0590064 C55.2089522,16.8513068 54.7284676,16.5659379 54.3235138,16.2046452 C53.9185599,15.8433526 53.6018769,15.417481 53.3725547,14.928776 C53.1441425,14.4391982 53.0285714,13.9112222 53.0285714,13.3439753 C53.0285714,12.7365847 53.1414125,12.1754466 53.3689147,11.6605609 C53.5955068,11.1448025 53.9094598,10.7006045 54.3144137,10.3270942 C54.7184575,9.95445662 55.1998521,9.66297896 55.7576874,9.45527931 C56.3173428,9.24670697 56.9243186,9.14285714 57.5822548,9.14285714 C58.2401911,9.14285714 58.8489869,9.24583428 59.4113723,9.45091587 C59.9719376,9.65687014 60.4560622,9.93787555 60.8637461,10.2974228 C61.27052,10.6560975 61.590843,11.0776056 61.8238053,11.5602018 C62.0549475,12.0436707 62.1714286,12.5629199 62.1714286,13.1179492 C62.1714286,13.7026499 62.0549475,14.2524431 61.8238053,14.7682014 C61.590843,15.2830871 61.27052,15.7351393 60.8637461,16.1217399 C60.4560622,16.5100859 59.9728476,16.8155266 59.4150123,17.0380619 C58.857177,17.2605972 58.2492912,17.3714286 57.5913549,17.3714286" id="Fill-28" fill="#fff" mask="url(#mask-8)"></path>
                    <path d="M65.7062393,16.4571429 L63.0857143,16.4571429 L63.0857143,8.54934625 L65.7062393,8.54934625 L65.7062393,9.13859564 C66.0040914,8.86750605 66.3258098,8.64871671 66.6704398,8.47961259 C67.0160245,8.31312349 67.3873849,8.22857143 67.7864303,8.22857143 C68.0212751,8.22857143 68.2398909,8.25733656 68.4470508,8.3157385 C68.6513467,8.37414044 68.832731,8.45084746 68.9873849,8.54934625 C69.1429935,8.64871671 69.2651892,8.7620339 69.353972,8.89191283 C69.4418002,9.02179177 69.4857143,9.15951574 69.4857143,9.30421308 C69.4857143,9.44280872 69.45612,9.57094431 69.3959768,9.68949153 C69.3358336,9.80891041 69.2537334,9.90828087 69.1487214,9.98847458 C69.0446642,10.06954 68.9243778,10.1331719 68.7888169,10.1793705 C68.6513467,10.2264407 68.5052847,10.2491041 68.3468121,10.2491041 C68.1377429,10.2491041 67.9668599,10.2185956 67.834163,10.1575787 C67.7014661,10.0974334 67.5783157,10.0320581 67.4685305,9.96319613 C67.356836,9.89346247 67.2460961,9.82808717 67.1363109,9.76794189 C67.0246164,9.70692494 66.8842823,9.67641646 66.7133992,9.67641646 C66.6246164,9.67641646 66.5367883,9.70692494 66.4470508,9.76794189 C66.358268,9.82808717 66.2713945,9.90915254 66.1854756,10.0102663 C66.1014661,10.1122518 66.0165019,10.2290557 65.9353563,10.3615496 C65.8523014,10.4949153 65.7759291,10.6300242 65.7062393,10.7694915 L65.7062393,16.4571429 Z" id="Fill-29" fill="#fff" mask="url(#mask-8)"></path>
                    <polygon id="Fill-30" fill="#fff" mask="url(#mask-8)" points="73.1428571 18.2857143 71.3142857 18.2857143 71.3142857 6.21258803 73.1428571 5.48571429"></polygon>
                    <path d="M81.6372349,12.3233531 C81.6372349,12.0502964 81.5966423,11.8006179 81.5118489,11.5752526 C81.4288596,11.348017 81.3188085,11.154446 81.1844019,10.9936044 C81.0508974,10.8318277 80.8975475,10.7065208 80.7270586,10.6167488 C80.5565697,10.5269767 80.3869828,10.4811555 80.2210042,10.4811555 C79.9927835,10.4811555 79.7771917,10.5559656 79.5742287,10.7055857 C79.3703636,10.8533356 79.1926583,11.0618686 79.0402105,11.3283794 C78.8868607,11.5948902 78.7659849,11.9128329 78.6775832,12.2822076 C78.5873775,12.6515822 78.5422746,13.051816 78.5422746,13.4866494 C78.5422746,13.9579527 78.5936919,14.4049428 78.6947223,14.830425 C78.7966549,15.254972 78.9355718,15.6308925 79.1123751,15.9563163 C79.2882764,16.28174 79.4930435,16.5398347 79.7266765,16.7324706 C79.9603095,16.9241713 80.2110815,17.0204893 80.4807968,17.0204893 C80.5764149,17.0204893 80.6765434,17.0055273 80.7811821,16.9746681 C80.8858208,16.9428738 80.9904595,16.9017283 81.0950982,16.8484262 C81.1997369,16.7960591 81.2980612,16.7324706 81.3918752,16.6576605 C81.4829831,16.5837856 81.5668744,16.5005594 81.6372349,16.4070468 L81.6372349,12.3233531 Z M81.6372349,17.5974618 C81.3386538,17.8153461 81.0085006,17.9836687 80.6458734,18.1042999 C80.2841482,18.2258662 79.9332477,18.2857143 79.5922699,18.2857143 C79.0771949,18.2857143 78.5945939,18.1669533 78.143565,17.9284963 C77.691634,17.6891041 77.2974348,17.3692911 76.9627713,16.9699925 C76.6281079,16.5697587 76.364707,16.1078066 76.1725687,15.5841363 C75.9813324,15.0595308 75.8857143,14.5124823 75.8857143,13.9411205 C75.8857143,13.3772397 76.0038839,12.8245804 76.2411251,12.2822076 C76.4765622,11.7388996 76.7985968,11.258245 77.2054249,10.8402438 C77.612253,10.4213075 78.0885395,10.082792 78.6360886,9.82656759 C79.1836377,9.56847291 79.7681711,9.44036069 80.390591,9.44036069 C80.6296364,9.44036069 80.8551508,9.45999833 81.0680365,9.50020873 C81.28002,9.54041914 81.4703542,9.59465642 81.6372349,9.6629206 L81.6372349,6.20295567 L84.1142857,5.48571429 L84.1142857,18.0996243 L81.6372349,18.0996243 L81.6372349,17.5974618 Z" id="Fill-31" fill="#fff" mask="url(#mask-8)"></path>
                    <polygon id="Fill-32" fill="#fff" mask="url(#mask-8)" points="98.7428571 7.31428571 98.7428571 8.24034465 93.3216246 8.24034465 93.3216246 11.8661935 98.0977219 11.8661935 98.0977219 12.8095705 93.3216246 12.8095705 93.3216246 18.2857143 90.5142857 18.2857143 90.5142857 7.31428571"></polygon>
                    <path d="M103.79022,13.1356606 C103.572215,13.2340656 103.352571,13.3481457 103.129649,13.4779009 C102.906727,13.6076561 102.705933,13.7513448 102.526448,13.9063544 C102.346143,14.0622349 102.201899,14.2268237 102.090438,14.4009918 C101.978977,14.5734182 101.923246,14.7554239 101.923246,14.9461379 C101.923246,15.0967933 101.942096,15.2396111 101.980616,15.3745914 C102.017496,15.5113134 102.068309,15.6288768 102.131416,15.7298943 C102.192884,15.8317827 102.265825,15.9119 102.346143,15.971988 C102.428099,16.0329468 102.514974,16.0634262 102.608404,16.0634262 C102.78707,16.0634262 102.971472,16.0033382 103.162432,15.8814206 C103.352571,15.7603737 103.561561,15.6105892 103.79022,15.4303252 L103.79022,13.1356606 Z M106.057143,17.2242565 L103.79022,17.2242565 L103.79022,16.5920264 C103.665646,16.7008814 103.541891,16.8045114 103.423874,16.899433 C103.303397,16.9952255 103.171447,17.0770845 103.028023,17.1458809 C102.883779,17.216419 102.718226,17.2712819 102.530545,17.3104697 C102.342864,17.3505284 102.12404,17.3714286 101.874072,17.3714286 C101.531493,17.3714286 101.223336,17.3191781 100.948781,17.216419 C100.674226,17.1110473 100.442288,16.9682294 100.252968,16.7870946 C100.061189,16.6042181 99.9144869,16.3882497 99.8120411,16.1374477 C99.7087756,15.8866456 99.6571429,15.6158142 99.6571429,15.327566 C99.6571429,15.021901 99.7104147,14.7475863 99.8194172,14.503751 C99.9284196,14.2616573 100.076761,14.0422055 100.263623,13.8462664 C100.451303,13.6494565 100.671767,13.4735467 100.925013,13.3167954 C101.17744,13.1617858 101.447078,13.018968 101.735565,12.8883419 C102.023233,12.7594575 102.321556,12.6410232 102.628074,12.5339099 C102.935412,12.4276673 103.240291,12.320554 103.545169,12.2177948 L103.79022,12.1568359 L103.79022,11.3687253 C103.79022,10.8662504 103.699248,10.5100767 103.516485,10.2984624 C103.333721,10.087719 103.094408,9.98234734 102.795266,9.98234734 C102.61578,9.98234734 102.4658,10.0067309 102.342864,10.0563688 C102.219929,10.1051358 102.12322,10.1730614 102.049459,10.2601454 C101.975698,10.3463586 101.924066,10.4465053 101.894561,10.5588437 C101.865057,10.6711821 101.849485,10.7904873 101.849485,10.9185008 C101.849485,11.0682854 101.834733,11.2128449 101.805228,11.3521794 C101.774904,11.4897722 101.722452,11.6125607 101.646232,11.719674 C101.570013,11.8267874 101.465108,11.9112589 101.331519,11.9748303 C101.198749,12.0384016 101.029098,12.0697519 100.822567,12.0697519 C100.502117,12.0697519 100.243953,11.9739595 100.048076,11.7806329 C99.8521998,11.5864355 99.7538518,11.3460835 99.7538518,11.0569645 C99.7538518,10.7791664 99.8415455,10.5240101 100.015294,10.289754 C100.189042,10.0563688 100.425897,9.85433379 100.725039,9.68364906 C101.023361,9.51383518 101.369219,9.38059659 101.759333,9.28567498 C102.151086,9.18988253 102.564967,9.14285714 102.998518,9.14285714 C103.532056,9.14285714 103.991014,9.19336589 104.37785,9.29438338 C104.763046,9.39453003 105.079399,9.53996039 105.326909,9.72632025 C105.574418,9.91529262 105.757181,10.1417111 105.876838,10.4073175 C105.996495,10.6729238 106.057143,10.9707513 106.057143,11.2999289 L106.057143,17.2242565 Z" id="Fill-33" fill="#fff" mask="url(#mask-8)"></path>
                    <path d="M111.420525,17.3714286 L108.8,17.3714286 L108.8,9.46363196 L111.420525,9.46363196 L111.420525,10.0528814 C111.718377,9.78179177 112.039141,9.56213075 112.384726,9.39389831 C112.729356,9.22653753 113.101671,9.14285714 113.500716,9.14285714 C113.735561,9.14285714 113.954177,9.17162228 114.160382,9.23002421 C114.365632,9.28755448 114.547017,9.36513317 114.701671,9.46363196 C114.857279,9.56213075 114.979475,9.67631961 115.067303,9.80532688 C115.155131,9.93607748 115.2,10.0729298 115.2,10.2184988 C115.2,10.3562228 115.170406,10.48523 115.110263,10.6037772 C115.050119,10.7231961 114.968019,10.8225666 114.863007,10.9027603 C114.75895,10.9838257 114.637709,11.0474576 114.503103,11.0936562 C114.365632,11.1407264 114.21957,11.1633898 114.061098,11.1633898 C113.852029,11.1633898 113.681146,11.1328814 113.548449,11.0718644 C113.415752,11.0117191 113.292601,10.9454722 113.182816,10.8774818 C113.071122,10.8077482 112.960382,10.7423729 112.850597,10.6822276 C112.739857,10.6212107 112.598568,10.5907022 112.427685,10.5907022 C112.338902,10.5907022 112.250119,10.6212107 112.161337,10.6822276 C112.072554,10.7423729 111.98568,10.8234383 111.899761,10.9245521 C111.814797,11.0265375 111.730788,11.1433414 111.648687,11.2758354 C111.566587,11.409201 111.490215,11.5443099 111.420525,11.6837772 L111.420525,17.3714286 Z" id="Fill-34" fill="#fff" mask="url(#mask-8)"></path>
                    <path d="M126.371519,11.8913422 C126.371519,11.7153965 126.348603,11.5456711 126.303687,11.3830546 C126.257855,11.2213268 126.194607,11.0818143 126.116692,10.9636285 C126.036944,10.8454428 125.94253,10.7512496 125.832533,10.6810491 C125.724369,10.6099599 125.605205,10.5744153 125.477792,10.5744153 C125.331129,10.5744153 125.178966,10.5975193 125.021304,10.6455045 C124.862725,10.692601 124.709645,10.7556927 124.556566,10.835668 C124.404403,10.9147547 124.258657,11.0080592 124.119327,11.1138044 C123.979081,11.2195495 123.860834,11.3324036 123.76367,11.4488121 L123.76367,17.3714286 L121.255735,17.3714286 L121.255735,11.8913422 C121.255735,11.7153965 121.231902,11.5456711 121.18332,11.3830546 C121.134738,11.2213268 121.06874,11.0818143 120.987159,10.9636285 C120.904661,10.8454428 120.810247,10.7512496 120.70025,10.6810491 C120.589336,10.6099599 120.478422,10.5744153 120.362008,10.5744153 C120.228179,10.5744153 120.084266,10.5975193 119.929353,10.6455045 C119.77444,10.692601 119.620444,10.7556927 119.469198,10.835668 C119.317036,10.9147547 119.16854,11.0080592 119.021877,11.1138044 C118.87613,11.2195495 118.745967,11.3324036 118.63047,11.4488121 L118.63047,17.3714286 L116.114286,17.3714286 L116.114286,9.31080531 L118.63047,9.31080531 L118.63047,10.0003703 C119.031043,9.74089479 119.442616,9.53295896 119.865188,9.37656279 C120.28776,9.22105523 120.6975,9.14285714 121.091656,9.14285714 C121.310734,9.14285714 121.531645,9.16684974 121.752556,9.2130577 C121.9753,9.26015427 122.187961,9.32768898 122.390539,9.41655045 C122.59495,9.5045233 122.781945,9.61115705 122.952441,9.73467448 C123.12202,9.85819192 123.267766,10.0003703 123.38968,10.1585437 C123.577591,10.0119222 123.788419,9.87507559 124.019413,9.7480037 C124.249491,9.62182043 124.491484,9.51340944 124.743561,9.42543659 C124.995638,9.33657513 125.252298,9.2681518 125.513541,9.21750077 C125.776617,9.16773835 126.034194,9.14285714 126.289021,9.14285714 C126.641928,9.14285714 126.976503,9.20861463 127.296411,9.3410182 C127.61632,9.47342178 127.895896,9.65736501 128.136056,9.89018204 C128.376216,10.1221105 128.565961,10.3931379 128.706208,10.7023758 C128.844621,11.0116137 128.914286,11.3439556 128.914286,11.6976242 L128.914286,17.3714286 L126.371519,17.3714286 L126.371519,11.8913422 Z" id="Fill-35" fill="#fff" mask="url(#mask-8)"></path>
                </g>
            </g>
        </g>
    </g>
</svg>
